Coordinates
version=1
nRows=27
nColumns=12
inDegrees=yes

Units are S.I. units (second, meters, Newtons, ...)
Angles are in degrees

endheader
time	SC_y	SC_z	SC_x	AC_y	AC_z	AC_x	GH_y	GH_z	GH_yy	EL_x	PS_y
       0.0              -25.67          -3.32          18.12          35.52        -0.4881          9.607          134.4          36.15          47.14          9.421           95.4
   0.00301              -25.68          -3.32          18.13          35.52        -0.4876          9.605          134.4          36.15          47.13          9.433           95.4
  0.006021              -25.68         -3.319          18.14          35.52        -0.4871          9.603          134.3          36.15          47.12          9.446          95.41
  0.009031              -25.68         -3.318          18.14          35.52        -0.4866            9.6          134.3          36.15          47.11           9.46          95.41
   0.01204              -25.68         -3.317          18.15          35.52         -0.486          9.598          134.3          36.15           47.1          9.474          95.41
   0.01505              -25.68         -3.316          18.16          35.53        -0.4854          9.595          134.3          36.16          47.09           9.49          95.41
   0.01806              -25.69         -3.316          18.17          35.53        -0.4848          9.592          134.2          36.16          47.07          9.507          95.41
   0.02107              -25.69         -3.315          18.18          35.53        -0.4841          9.589          134.2          36.16          47.06          9.525          95.42
   0.02408              -25.69         -3.314           18.2          35.53        -0.4833          9.586          134.2          36.16          47.05          9.544          95.42
   0.02709              -25.69         -3.312          18.21          35.53        -0.4825          9.582          134.1          36.17          47.03          9.564          95.42
    0.0301               -25.7         -3.311          18.22          35.53        -0.4816          9.578          134.1          36.17          47.02          9.586          95.42
   0.03311               -25.7          -3.31          18.24          35.54        -0.4807          9.574          134.0          36.17           47.0           9.61          95.43
   0.03612               -25.7         -3.309          18.25          35.54        -0.4797           9.57          134.0          36.18          46.98          9.636          95.43
   0.03913              -25.71         -3.307          18.27          35.54        -0.4786          9.565          133.9          36.18          46.96          9.663          95.43
   0.04214              -25.71         -3.306          18.29          35.54        -0.4774           9.56          133.9          36.18          46.94          9.693          95.44
   0.04515              -25.71         -3.304          18.31          35.55        -0.4762          9.554          133.8          36.19          46.92          9.726          95.44
   0.04816              -25.72         -3.302          18.33          35.55        -0.4748          9.548          133.7          36.19          46.89          9.761          95.45
   0.05118              -25.72           -3.3          18.35          35.55        -0.4733          9.541          133.7           36.2          46.87            9.8          95.45
   0.05419              -25.73         -3.298          18.38          35.56        -0.4716          9.534          133.6          36.21          46.84          9.842          95.46
    0.0572              -25.73         -3.295          18.41          35.56        -0.4698          9.526          133.5          36.21           46.8          9.888          95.46
   0.06021              -25.74         -3.292          18.44          35.57        -0.4678          9.517          133.4          36.22          46.77          9.938          95.47
   0.06322              -25.75         -3.289          18.47          35.57        -0.4657          9.507          133.3          36.23          46.73          9.994          95.48
   0.06623              -25.76         -3.286          18.51          35.58        -0.4633          9.497          133.2          36.23          46.68          10.05          95.48
   0.06924              -25.77         -3.283          18.55          35.58        -0.4606          9.485          133.0          36.24          46.63          10.12          95.49
   0.07225              -25.77         -3.278           18.6          35.59        -0.4576          9.472          132.9          36.25          46.58           10.2           95.5
   0.07526              -25.79         -3.274          18.65           35.6        -0.4543          9.457          132.7          36.27          46.52          10.28          95.51
   0.07827               -25.8         -3.269          18.71          35.61        -0.4506          9.441          132.6          36.28          46.45          10.38          95.52
